<svg xmlns="http://www.w3.org/2000/svg" viewBox="0 0 128 128" role="img" aria-labelledby="title">
  <title id="title">SpecRelay icon</title>
  <rect width="128" height="128" rx="24" fill="#0B0D10"/>
  <g transform="translate(18 20)">
    <g fill="none" stroke="#32C5FF" stroke-width="7" stroke-linecap="round" stroke-linejoin="round">
      <path d="M14 14h42c14 0 20 8 20 20s-10 10-35 10"/>
      <path d="M41 44H31c-12 0-18 6-18 14s8 14 20 14h43"/>
    </g>
    <circle cx="14" cy="14" r="8" fill="#F5F7FA" stroke="#32C5FF" stroke-width="5"/>
    <circle cx="76" cy="72" r="8" fill="#F5F7FA" stroke="#32C5FF" stroke-width="5"/>
    <path d="m29 32 12-5 12 5v11c0 10-12 16-12 16s-12-6-12-16z" fill="#0B0D10" stroke="#32C5FF" stroke-width="4" stroke-linejoin="round"/>
    <path d="m35 42 4 4 8-8" fill="none" stroke="#32C5FF" stroke-width="4" stroke-linecap="round" stroke-linejoin="round"/>
  </g>
</svg>